<?xml version="1.0" encoding="UTF-8"?>
<svg id="Layer_4" xmlns="http://www.w3.org/2000/svg" viewBox="0 0 563.38 317.81">
  <defs>
    <style>
      .cls-1 {
        fill: #531075;
      }

      .cls-2 {
        fill: #5d78fe;
      }

      .cls-3 {
        fill: #0127f6;
      }

      .cls-4 {
        fill: #0abba8;
      }

      .cls-5 {
        fill: #3c5afb;
      }

      .cls-6 {
        fill: #009898;
      }

      .cls-7 {
        fill: #028bf6;
      }

      .cls-8 {
        fill: #fc922d;
      }

      .cls-9 {
        fill: #520e77;
      }

      .cls-10 {
        fill: #febd2c;
      }

      .cls-11 {
        fill: #b1e0fd;
      }

      .cls-12 {
        fill: #fec02c;
      }

      .cls-13 {
        fill: #fe70a2;
      }

      .cls-14 {
        fill: #018ff6;
      }

      .cls-15 {
        fill: #11aaf6;
      }
    </style>
  </defs>
  <path class="cls-4" d="M430.63,82.46v.48c.01,2.87,0,5.76,0,8.63h25.31c.37,0,3.32,1.37,3.84,1.68,2.86,1.68,5.88,5.55,5.88,8.99v3.72h25.55c2.69,0,7.7,4.51,8.82,6.78.67,1.35.3,3.08,1.13,4.26v4.32c-3.17.21-6.71-.29-9.84,0-1.32.09-3.32-.02-4.56.24v-2.88h-21.11v3.12c-3-.64-8.43-.73-11.52-.48-.85.06-1.8-.09-2.64,0v-17.03h-20.87v6.12c0,.22-1.28,1.98-1.56,2.28-1.3,1.43-5.32,3.83-7.2,3.83h-16.43v-8.87h12.96c0-2.87-.01-5.76,0-8.63.02-4.55-.01-9.12,0-13.67h-12.95v-8.87l17.28.11c3.31.79,6.3,2.88,7.9,5.89v-.02Z"/>
  <path class="cls-14" d="M281.66,190.62l-33.44-.24-.14.72h29.63c2.26,0,5.28,3.42,6.16,5.35,1.95,4.24,1.61,12.99,1.4,17.8-.04.91-.53,2.31-.48,3.1.03.5,1.07,2.63,1.31,3.49,1.06,3.9.86,12.87.61,17.16-.03.53-.2,1.02-.25,1.55-.22.75-.43,1.43-.72,2.16-1.08,1.4-2.43,3.22-4.08,3.96-.22.1-1.71.6-1.8.6h-33.95c.25-18.37-.34-36.79,0-55.16,0-.4-.12-2.12.14-2.16h31.66c1.67-.04,2.69.92,3.95,1.68h0ZM254.79,203.57c-.24,0-.48,0-.72,0v9.6h22.07v-.72c.01-.48,0-.96,0-1.44.24,0,.48,0,.72,0v-9.6h-22.07c0,.72.02,1.44,0,2.16h0ZM254.79,225.63c-.24,0-.48,0-.72,0v10.31h23.51v-.72c.01-.48,0-.96,0-1.44.24,0,.48,0,.72,0v-10.31h-23.51c0,.72.02,1.44,0,2.16Z"/>
  <path class="cls-4" d="M155.23,73.59c0,3.91,0,7.84,0,11.75h-12.95c0,4.55-.02,9.12,0,13.67v5.76h12.96c0,3.91,0,7.84,0,11.75h-16.43c-1.88,0-5.9-2.41-7.2-3.83-.27-.3-1.56-2.06-1.56-2.28v-6.36h-4.68c-.05,0-.32-.46-.36-.12v17.87c-3.1-.06-6.25-.04-9.35,0-.4,0-.8-.02-1.2,0v-3.36h-15.23c-.05,0-.27-.36-.36-.24v3.6c-3.51-.08-7.05,0-10.56,0,.02-2.55-.03-5.12,0-7.67.35-1.37.33-2.76.79-4.13.53-1.58,2.01-4.02,3.29-5.11.38-.33,2.99-2.03,3.25-2.03h18.83v-3.48c0-2.89,1.98-7.12,4.21-8.99.42-.35,2.8-1.93,3.11-1.93h8.28v-5.76c0-1.04,0-2.08,0-3.12,1.61-3,4.6-5.1,7.9-5.89l17.28-.11h-.02Z"/>
  <path class="cls-4" d="M63.11,159.2c-.68,3.5-1.23,7.05-1.92,10.55-11.43,0-22.88,0-34.31,0,.06,20.3-.07,40.61,0,60.92v5.76h8.64c0,5.18-.12,10.41,0,15.59-3.67-.25-7.78.34-11.4,0-5.3-.48-8.94-6.97-9-11.87.18-23.29-.31-46.7.25-69.92.65-4.89,3.27-9.57,8.33-10.98l39.41-.06h0Z"/>
  <path class="cls-4" d="M500.92,161.36l38.69.06c5.06,1.41,7.69,6.09,8.33,10.98l-.23,66.8c-.2,4.44-2.27,9.31-6.43,11.32-2.78,1.34-5.7.61-8.69.78-.02-.63.12-1.29-.13-1.91-2.3-3.54-4.38-7.21-6.58-10.8l10.31.24v-8.63c.04-19.98-.03-39.97,0-59.96h-50.38c1.23-.1,3.32-.5,4.51-.89,2.36-.78,4.82-2.45,6.05-4.62,1.43-.57,3.57-2.18,4.56-3.36h0Z"/>
  <path class="cls-14" d="M314.52,191.1c8.12-.44,16.64.31,24.8.03,4.97.8,7.44,6.05,7.83,10.64-.21,14.82.26,29.68,0,44.5-2.69.22-5.67-.17-8.4,0v-18.47h-23.51c-.01.72.01,1.44,0,2.16-.24,0-.48,0-.72,0-.07,5.43.1,10.88,0,16.31-2.71.08-5.45-.06-8.16,0v-46.18c.1-.72.13-1.57.24-2.27.17-1.05.23-1.21.72-2.16.63-1.21,2.07-2.83,3.28-3.56,1.42-.87,2.31-.91,3.92-1h0ZM315.24,203.57c-.24,0-.48,0-.72,0v13.91h23.51v-.72c.01-.48,0-.96,0-1.44.24,0,.48,0,.72,0v-13.91h-23.51c0,.72.02,1.44,0,2.16Z"/>
  <path class="cls-14" d="M431.59,191.1c8.24-.51,16.99.36,25.29.02,4.82,1.07,7.18,6.07,7.59,10.64-.41,11.9.51,24.13,0,35.99-.03.62-.16,1.18-.25,1.79-.22.75-.43,1.43-.72,2.16-1.64,2.34-3.58,4.3-6.59,4.57-8.03.69-17.06-.53-25.19,0-5.23-.81-7.7-6.05-8.05-10.9-.87-12.05.47-25.4.25-37.54-.11-.82.37-1.48.72-2.16.63-1.21,2.07-2.83,3.28-3.56,1.3-.79,2.19-.91,3.68-1h-.01ZM432.55,203.57c-.22.02-.69-.13-.72.14v32.24h23.52v-.72c.01-.48,0-.96,0-1.44.22-.02.69.13.72-.14v-32.24h-23.52c0,.72.02,1.44,0,2.16Z"/>
  <path class="cls-7" d="M129.08,191.1c.53,0,5.76-.29,5.76,0v22.54c1.25-.19,7.79.34,8.28-.24.12-.14.07-.42.12-.48,3.57-4.24,6.88-11.43,9.84-16.31,1.09-1.8,2.36-3.53,3.36-5.4.44-.27,2.2-.1,2.88-.12,2.23-.05,4.48.04,6.72,0-.04.95.06,1.93,0,2.88,0,.16.02.32,0,.48l-14.04,22.81-.11.34c0,.22.22.3.24.35.08.3.13.49.28.79,3.85,7.66,9.85,15.13,13.93,22.77.24.65.31,4.47.12,4.69-.09.11-.4.02-.42.05l-8.84-.04-13.59-22.26h-8.04c0,.72,0,1.44,0,2.16-.24,0-.48,0-.72,0-.09,6.71.12,13.44,0,20.15-2.79.08-5.61-.06-8.4,0l-.02-54.35c-.14-.3.25-.72.26-.81h2.4-.01Z"/>
  <path class="cls-10" d="M339.23,164.24c-4.21,1.8-8.67,1.86-13.19,1.68-11.99-2.7-11.69-17.05-9.48-26.62,1.91-8.28,6.23-16.97,15.72-17.98,2.67-.29,7.39-.13,9.9.77,13.15,4.75,8.59,31.57.66,39.41-1.02,1.01-2.64,1.81-3.61,2.75h0ZM331.55,129.94c-2.51,5.81-6.65,23.57-4.57,29.39.24.68,1.21,2.37,2.03,2.23.26-.04.32-.41.39-.45,2.33-1.36,3.21-4.7,3.96-7.2,1.01-3.4,1.82-7.24,2.44-10.75.71-3.97,2.4-12.82.28-16.19-1.23-1.95-2.07-1.37-3.32.2-.86,1.08-.8,1.83-1.2,2.76h0Z"/>
  <path class="cls-12" d="M276.86,121.79c5.36-.08,11.92-.4,17.16,0,12.64.95,12.2,17.59,4.31,23.99-.68.55-2.93,1.55-3.12,2.37l3,17.3h-5.52c-2.07,0-4.16.03-6.24,0l-2.64-16.79c-.25.04-.84-.08-.94.02-.19.17-.83,4.3-.98,5.02-.53,2.63-1.68,7.08-1.68,9.59-.51.31-.4,2.08-.48,2.16-.14.15-3.49,0-4.08,0-2.39.02-4.81.04-7.2,0l8.4-43.65h.01ZM287.41,125.87c-.44.51-.75,4.31-.96,5.28-.04.2-.28.55-.37.94-.86,4.13-1.71,8.32-2.27,12.49.24,0,.48,0,.72,0,3.81.12,5.35-1.67,6.55-5.09.99-2.83,3.01-11.52.02-13.34-.74-.45-3.16-.89-3.68-.28h-.01Z"/>
  <path class="cls-13" d="M65.27,196.61c-.12,17.26.09,34.54,0,51.8h8.88v-.72h3.12v-32.38c6.72,10.92,13.4,21.88,20.03,32.85.18.25.44.22.7.26,2.68.33,6.02-.27,8.77,0v-.72h3.12c-.04-17.02.05-34.06,0-51.08h4.8v57.32h-21.23l-11.4-18.47v18.47h-20.87v-57.32h4.08Z"/>
  <path class="cls-13" d="M167.94,196.61h6v4.2l-14.83,24.5,14.83,24.42v4.2h-21.59l-9.6-15.83v15.83h-21.11v-57.32h4.32v51.8h8.88v-.72h3.12v-21.58c1.07,0,4.72-.24,5.29.35l13.23,21.91c1.2-.15,9.19.37,9.55.05.03-.03,0-.54,0-.72h3.12v-4.2l-14.82-24.26c4.1-7.75,9.32-14.99,13.62-22.63h0Z"/>
  <path class="cls-13" d="M483.17,196.85c-.12,17.18.09,34.38,0,51.56h8.88v-.72h3.12v-17.99c2.95-.05,5.93-.07,8.87.12l11.32,18.53,9.31.05v-.72h3.12v-4.2l-8.88-14.27c.07-.03.14-.19.24-.24,5.39-.33,8.29-5.8,8.65-10.66s.5-16.52-.73-20.75c3.35,1.88,5.21,5.97,5.51,9.72.38,4.62.5,16.7-.73,20.85-.17.58-.45,1.27-.71,1.81-1.38,2.9-4.07,5.26-7.44,5.28-.16.12,1.97,3.04,2.16,3.36,2.2,3.59,4.29,7.27,6.58,10.8.26.61.11,1.27.13,1.91.03.87-.02,1.76,0,2.64h-21.35c-3.44-5.54-6.58-11.62-10.22-17.01-.29-.43-.55-1.01-1.06-1.22v18.23h-20.87v-57.08h4.1Z"/>
  <path class="cls-12" d="M368.98,121.79c2.78-.04,5.59,0,8.37.03,2.02,5.36,4.46,10.56,6.74,15.8.49,1.12.94,2.24,1.44,3.36.46,1.02.77,2.36,1.38,3.29.15.23-.03.43.54.31l4.32-22.78c2-.03,4,.02,6,0l-8.32,43.36-.23.3c-1.22,0-2.46-.02-3.68,0s-2.57.03-3.84,0l-9.87-24.07-.45-.39c-.21,1.18-.25,2.71-.48,3.84-.51,2.52-1.17,5.11-1.68,7.67-.85,4.3-1.82,8.62-2.4,12.95-1.36,0-2.72,0-4.08,0-.72,0-1.44,0-2.16,0l8.4-43.65v-.02Z"/>
  <path class="cls-13" d="M349.55,197.57c2.14.81,3.8,3.3,4.56,5.39.27.74.95,2.94.95,3.6v47.36h-21.11v-18.47h-11.52v18.47h-20.87v-47.36c0-2.68,2.44-7.34,4.8-8.75l-.73,3.95v46.66h8.89v-.72h3.12v-17.75c6.79-.07,13.6.05,20.39,0v18.47h9.12v-.72h3.12v-47.36c0-.53-.53-2.14-.72-2.76h0Z"/>
  <path class="cls-13" d="M184.5,196.61c-.1,13.71.08,27.43,0,41.14.45,4.62,2.74,9.85,7.8,10.66,8.26-.58,17.55.76,25.68,0,.99-.09,1.8-.48,2.75-.73,5.49-1.43,7.26-4.79,8.13-10.22.02-13.62.08-27.24.03-40.86h4.8v47.36c0,4.4-3.92,9.62-8.51,9.96-12.02.9-25.23-.65-37.37-.07-4-.31-7.62-6.29-7.62-9.89v-47.36h4.32-.01Z"/>
  <path class="cls-13" d="M364.18,196.61c-.06,1.74-.21,4.48-.01,6.13.03.24.11.83.37.83h15.95v44.85h9.12v-.72h3.12v-44.13c4.39-.04,8.8.03,13.2,0v-.72h3.12v-6.24h4.8v12.47h-16.31v44.85h-20.87v-44.85h-16.31v-12.47h3.84-.02Z"/>
  <path class="cls-13" d="M245.19,196.61c-.12,17.26.09,34.54,0,51.8h34.19c.11,0,1.59-.6,2.04-.72,3.79-.96,5.56-2.21,7.07-6s1.42-14.15,1.09-18.59c-.18-2.4-1.83-5.18-1.92-6.48-.05-.73.44-1.99.48-2.86.2-4.4.44-12.13-.73-16.2,3.8,1.77,5.28,6.52,5.53,10.42.23,3.53.15,8.21,0,11.77-.04.91-.53,2.31-.48,3.1.08,1.27,1.72,4.26,1.91,6.49.35,4.22.44,14.26-.89,18.05-.77,2.2-3.87,6.53-6.42,6.53h-46.18v-57.32h4.32,0Z"/>
  <path class="cls-13" d="M423.68,197.81c-.2,1.31-.63,2.61-.73,3.95-.86,11.61.67,24.27,0,35.99.45,4.62,2.74,9.85,7.8,10.66,8.26-.58,17.55.76,25.68,0,.99-.09,1.8-.48,2.75-.73,5.49-1.43,7.26-4.79,8.13-10.22-.58-11.87.88-24.66.04-36.43-.08-1.17-.39-2.35-.73-3.47,3.41,1.47,5.23,5.96,5.51,9.48.95,11.62-.71,24.47.01,36.22-.47,4.91-3.04,10.26-8.52,10.67-11.99.9-25.09-.7-37.2,0-5.02-.87-7.37-6.04-7.8-10.66.67-11.73-.86-24.37,0-35.99.25-3.39,1.87-7.86,5.05-9.46h.01Z"/>
  <path class="cls-9" d="M339.23,107.88h-9.48l-6.36-12.23h-4.08v12.23h-8.88v-35.49h16.19c.86,0,3.64.83,4.56,1.19,8.7,3.4,8.41,16.3.36,20.28l7.68,14.02h.01ZM319.32,88.46h5.64c.61,0,2.68-1.35,3.12-1.91,1.31-1.67,1.3-5.12-.63-6.34-.25-.16-2.08-.86-2.26-.86h-5.88v9.11h.01Z"/>
  <path class="cls-9" d="M202.44,71.74c22.15-2,23.43,32.03,6.05,36.26-24.57,5.99-28.54-34.23-6.05-36.26ZM203.64,79.16c-9,.64-8.87,18.42-2.18,21.24,11.99,5.04,13.71-22.05,2.18-21.24Z"/>
  <path class="cls-9" d="M369.7,107.88v-35.49h13.79c1.28,0,5.35,1.39,6.61,2.03,13.25,6.67,9.67,33.47-7.33,33.47h-13.07ZM378.57,79.34v21.22c0,.63,3.11.12,3.61.01,4.99-1.05,6.72-4.82,6.96-9.59.36-7.43-2.68-12.03-10.57-11.64h0Z"/>
  <path class="cls-9" d="M250.71,107.88v-35.49h13.55c2.14,0,6.95,1.98,8.73,3.26,8.5,6.1,7.99,23.9-.96,29.46-1.88,1.17-6.33,2.78-8.5,2.78h-12.83,0ZM259.35,100.93c8.09.51,11.43-5.07,10.76-12.56-.59-6.58-4.24-9.35-10.76-9.02,0,0,0,21.58,0,21.58Z"/>
  <path class="cls-12" d="M501.16,121.31l6.48,1.2c-.53,1.52.22,3.45-1.8,3.37-1.31-.05-2.44.02-3.72-.02-4.41-.14-8.78-1.69-10.56,3.84-1.16,3.62-.66,5.23,2.18,7.53,6.16,4.98,11.92,5.28,10.54,15.49-.37,2.73-1.58,6.5-3.36,8.63-.98,1.18-3.13,2.79-4.56,3.36-3.88,1.55-10.19,1.32-14.39,1.2-.53-.41-1.91-.4-2.4,0-.22,0-.43-.24-.48-.24l-5.27-.97.47-3.35c.92.02,2.52-.26,3.45-.22,2.51.11,4.46.91,7.1.46,2.62.67,5.5-.5,6.81-2.91,1.68-3.11,1.62-6.08-1.05-8.49-5.9-5.32-12.18-4.98-11.25-15.55.64-7.2,4.46-12.65,11.96-13.34,3.13-.29,6.66.21,9.84,0h0Z"/>
  <path class="cls-12" d="M88.3,121.79c3.51,0,7.05-.08,10.56,0,.64.01,1.28-.01,1.92,0l-.75,3.8c-1.34.07-2.7.02-4.05.03-3.43.03-6.87-.04-10.3.01-.26,1.42-.44,2.89-.73,4.3-.76,3.74-1.6,7.49-2.16,11.27h12.47l-.71,3.73c-.36.25-3.34.09-4.09.11-2.8.04-5.62-.12-8.41.1-.19.13-.82,3.6-.94,4.21-.85,4.06-1.57,8.16-2.4,12.23h14.39l-.75,3.81c-1.34.07-2.7.02-4.05.03-7.26.07-14.57.12-21.83,0l8.4-43.65c4.47-.07,8.96,0,13.43,0v.02Z"/>
  <path class="cls-12" d="M153.79,121.79c8.63-.13,17.28.1,25.91,0l-.75,3.8c-1.42.07-2.86.02-4.29.03-3.35.03-6.71-.03-10.06.01-.26,1.42-.44,2.89-.73,4.3-.76,3.74-1.6,7.49-2.16,11.27h12.47l-.71,3.73c-.36.25-3.56.1-4.33.11-2.72.04-5.46-.12-8.17.1-.19.13-.82,3.6-.94,4.21-.85,4.06-1.57,8.16-2.4,12.23h14.39l-.75,3.81c-1.42.07-2.86.02-4.29.03-7.18.06-14.41.12-21.59,0l8.4-43.65v.02Z"/>
  <path class="cls-6" d="M430.63,82.94l25.44.11c4.49,1.08,9.58,5.72,9.58,10.56v3.72h25.55c.8,0,4.17,1.83,4.97,2.41,5.85,4.2,4.98,10.7,4.98,17.26-.83-1.18-.46-2.9-1.13-4.26-1.12-2.26-6.13-6.78-8.82-6.78h-25.55v-3.72c0-3.44-3.02-7.32-5.88-8.99-.52-.31-3.47-1.68-3.84-1.68h-25.31c0-2.87.01-5.76,0-8.63h.01Z"/>
  <path class="cls-13" d="M35.52,230.67c0-11.35,0-22.71,0-34.05h4.56v51.8l8.75.02c.29-.08.06-.66.13-.74.1-.11,2.42.08,2.88,0-.04-17.02.05-34.06,0-51.08h4.8v57.32h-21.11c0-.64.02-1.28,0-1.92-.12-5.18,0-10.4,0-15.59v-5.76h-.01Z"/>
  <path class="cls-9" d="M365.14,72.39v7.19h-13.55s-.36.33-.36.36v5.76s.33.36.36.36h11.4v7.19h-11.4s-.36.33-.36.36v6.83h14.39v7.43h-23.03v-35.49h22.55,0Z"/>
  <path class="cls-9" d="M305.41,72.39v7.19h-13.55s-.36.33-.36.36v5.76s.33.36.36.36h11.4v7.19h-11.75v7.19h14.39v7.43h-23.03v-35.49h22.55-.01Z"/>
  <path class="cls-9" d="M169.22,83.58c.13.16.96.72,1.2.84,5.41,2.9,13.86,3.37,14.77,11.13,1.61,13.63-15.63,15.85-24.62,9.5-.81-.57-2.36-1.32-1.76-2.34.93-1.59,3.06-3.22,3.99-4.93,3.21,1.84,7.86,4.14,11.61,2.77,2.07-.76,2.81-3.13.95-4.54-4.94-3.75-14.34-3.25-15.52-11.83-1.59-11.58,12.61-15.11,21.21-10.41.89.48,3.38,1.85,2.84,2.91l-4.1,5.02c-2.72-1.53-5.08-2.81-8.35-2.36-2.19.3-3.87,2.26-2.22,4.22v.02Z"/>
  <path class="cls-12" d="M465.66,121.79c3.14.66,2.1,1.39,1.66,4.06l-2.02-.24-3.24.26c-4.99-.65-7.06-.02-9.6,4.32-3.27,5.58-6.27,20.15-4.93,26.39.55,2.55,2.19,5.01,5.05,5.04,1.34.02,2.99-.25,4.32-.26,1.05,0,2.25.4,3.48,0-.15.57-.33,3.05-.52,3.32-.12.18-3.73.93-4.28,1-2.64.35-5.72.34-8.4.24-2.1-.47-4.23-.97-5.98-2.3-7.07-5.38-5.96-16.65-4.22-24.32,2.16-9.49,6.53-17.11,17.16-17.98,3.09-.25,8.51-.16,11.52.48h0Z"/>
  <path class="cls-12" d="M207.05,121.31c2.06-.17,5.23-.13,7.31,0,.85.05,5.69.74,6.12,1.07.49.37-.13,3.35-.26,3.47-.28.24-1.57-.29-2.02-.24l-3.24.26c-4.9-.75-7.13.07-9.6,4.32-3.26,5.62-6.27,20.12-4.93,26.39.55,2.55,2.19,5.01,5.05,5.04,1.34.02,2.99-.25,4.32-.26,1.05,0,2.25.4,3.48,0-.15.57-.33,3.05-.52,3.32-.15.23-3.9.92-4.52,1-2.65.33-5.48.34-8.16.24-2.1-.47-4.23-.97-5.98-2.3-7.1-5.4-5.98-16.83-4.18-24.52,2.22-9.43,6.52-16.92,17.11-17.79h.02Z"/>
  <path class="cls-12" d="M233.68,121.79c9.83-.15,19.68.11,29.51,0l-.74,3.81c-1.35.06-2.71,0-4.05.02-1.67.02-3.35-.03-5.03.01-.2,1.44-.44,2.88-.73,4.3-2.41,11.76-4.53,23.59-6.93,35.35-.19.27-3.23.13-3.87.14-2.47.03-4.96.02-7.44,0l7.41-38.76.03-1.05c-.8,0-1.6.01-2.4,0-2.15-.04-4.32.03-6.48,0l.72-3.84v.02Z"/>
  <path class="cls-12" d="M125,121.79c.72.01,1.44-.01,2.16,0l-7.68,39.81h12.47l-.49,3.82c-1.35.03-2.71,0-4.07,0-6.7.04-13.45.11-20.15,0l8.4-43.65c3.1-.04,6.25-.06,9.36,0h0Z"/>
  <path class="cls-12" d="M414.08,121.79c3.72-.06,7.44.04,11.16,0l.35.36-8.41,43.28c-1.35.03-2.71,0-4.07,0-2.47.02-4.97.04-7.44,0l8.4-43.65h.01Z"/>
  <path class="cls-14" d="M42.96,191.1h6v55.16c-2.69.22-5.67-.17-8.4,0l-.02-54.35c-.14-.3.25-.72.26-.81h2.16Z"/>
  <path class="cls-9" d="M232.72,72.39v22.42l4.68,4.68h8.88s.36.33.36.36v7.67s-.33.36-.36.36h-13.19l-9.24-9.23v-26.26h8.88,0Z"/>
  <path class="cls-6" d="M504.28,152.73h34.67c5.67,1,8.56,6.32,8.98,11.64.21,2.59-.14,5.41,0,8.03-.65-4.89-3.27-9.57-8.33-10.98l-38.69-.06c1.78-2.13,2.99-5.9,3.36-8.63h.01Z"/>
  <path class="cls-6" d="M64.31,153.45c-.37,1.92-.83,3.84-1.2,5.76l-39.41.06c-5.06,1.41-7.69,6.09-8.33,10.98.09-1.68-.13-3.48,0-5.15.3-3.75,1.97-8.04,5.2-10.15,1.06-.7,2.52-1.38,3.79-1.49h39.95Z"/>
  <path class="cls-6" d="M130.04,82.7v5.76h-8.28c-.31,0-2.7,1.58-3.11,1.93-2.22,1.87-4.21,6.09-4.21,8.99v3.48h-18.83c-.26,0-2.86,1.7-3.25,2.03-1.28,1.09-2.76,3.53-3.29,5.11-.46,1.37-.44,2.76-.79,4.13.05-5.13-.33-10.98,3.82-14.76.45-.41,3.13-2.27,3.49-2.27h18.83v-3.48c0-3.78,3.49-10.26,7.57-10.9,2.38-.37,5.55.25,8.02-.01h.03Z"/>
  <path class="cls-6" d="M430.63,82.46c-1.61-3-4.6-5.1-7.9-5.89l-17.28-.11v-8.63h17.15c2.02,0,6.78,3.42,7.65,5.3.77,1.66.37,7.15.39,9.33h-.01Z"/>
  <path class="cls-1" d="M150.43,126.11c-.07.33.02.81-.07,1.25-2.59,12.66-4.96,25.4-7.37,38.08.8,0,1.6,0,2.4,0,7.18.12,14.41.06,21.59,0-.02,1.4-.2,3.11-.84,4.32h-26.27l8.41-43.64h2.15Z"/>
  <path class="cls-1" d="M71.51,126.11c-.07.33.02.81-.07,1.25-2.59,12.66-4.96,25.4-7.37,38.08.8,0,1.6,0,2.4,0,7.26.12,14.57.07,21.83,0-.06,1.09-.16,2.93-.53,3.91-.11.29-.24.4-.55.41-8.68,0-17.36,0-26.03,0,.68-3.5,1.24-7.05,1.92-10.55.37-1.92.83-3.83,1.2-5.76,1.77-9.1,3.61-18.2,5.29-27.33h1.91Z"/>
  <path class="cls-1" d="M190.25,130.9c-3.81,8.61-7.53,26.5,1.6,32.81,2.74,1.89,5.02,2.08,8.24,2.2,2.68.1,5.51.09,8.16-.24,0,.54-.38,3.22-.63,3.38-.61.42-5.02,1.1-5.97,1.17-11.32.78-17.94-2.64-18.6-14.73-.49-9.01,2.14-17.42,7.21-24.59h-.01Z"/>
  <path class="cls-1" d="M112.29,126.11c-.07.33.02.81-.07,1.25-2.59,12.66-4.96,25.4-7.37,38.08.8,0,1.6,0,2.4,0,6.7.11,13.45.04,20.15,0l-.72,4.32h-24.71l8.41-43.64h1.91,0Z"/>
  <path class="cls-1" d="M326.04,165.92c4.53.18,8.98.12,13.19-1.68-.54.53-.95,1.38-1.68,2.04-4.89,4.43-15.96,5.65-21.43,1.99-9.91-6.63-5.87-26.87-.5-35.44.17-.26.53-.4.58-.49-.59,2.35-1.5,4.58-2.04,6.95-2.45,10.63-2.3,26.06,11.88,26.62h0Z"/>
  <path class="cls-1" d="M436.87,131.86c-5.32,11.75-7.44,33.4,10.32,34.05,2.67.1,5.76.11,8.4-.24,0,.54-.38,3.22-.63,3.38-.61.42-5.02,1.1-5.97,1.17-3.82.26-8.84.28-12.18-1.72-9.22-5.53-6.67-21.82-3.53-30.29.81-2.19,1.92-4.71,3.6-6.35h-.01Z"/>
  <path class="cls-13" d="M196.25,196.61h4.8v37.17c-1.59,0-3.2.03-4.8,0-.43-12.22.04-24.9,0-37.17Z"/>
  <path class="cls-1" d="M232.96,125.63c2.15.03,4.32-.04,6.48,0l-7.67,39.69c.84.22,1.77.11,2.63.12,2.47.02,4.96.03,7.44,0-.42.6-.57,4.32-1.08,4.32h-11.64l7.44-39.81h-8.88l.73-3.83c.84-.05,1.68.02,2.52-.01.46-.02.96.24.83-.48.4.02.8,0,1.2,0Z"/>
  <path class="cls-13" d="M216.88,196.61c-.44,12.28.2,24.85,0,37.17h-4.32v-37.17h4.32Z"/>
  <path class="cls-6" d="M130.04,79.58c.03-2.06-.43-5.19.66-6.89s5.39-4.86,7.38-4.86h17.15v5.76l-17.28.11c-3.31.79-6.3,2.88-7.9,5.89h-.01Z"/>
  <path class="cls-5" d="M521.07,190.86c3.07.74,5.16,3.84,6,6.71,1.23,4.23,1.08,16.03.73,20.75s-3.26,10.33-8.65,10.66c2.54-1.43,4.02-4.01,4.8-6.71.31-1.05.64-2.12.73-3.23.36-4.6.36-12.67-.01-17.27-.35-4.24-3.05-9.95-7.8-10.43-10.19.07-20.39-.11-30.58,0-.03-.84-.15-.66.59-.72,10.66-.84,22.37.64,33.13,0,.41-.09.75.17,1.06.25h0Z"/>
  <path class="cls-1" d="M487.01,160.88c1.64-6.02-4.27-7.59-8-10.35-5.32-3.95-6.14-8.22-4.6-14.59.62-2.56,1.84-5.56,3.96-7.19-1.42,3.39-2.1,8.9-.68,12.32,2.41,5.8,11.25,7.65,12.42,11.8.78,2.77-.6,6.62-3.1,8.02h0Z"/>
  <path class="cls-2" d="M107.49,190.38c.8,0,1.6,0,2.4,0v6.24c.05,17.02-.04,34.06,0,51.08h-3.12c.01-.48,0-.96,0-1.44.22-.02.69.13.72-.14v-55.74Z"/>
  <path class="cls-1" d="M410.72,126.11c-.07.33.02.8-.07,1.25-2.61,12.66-5,25.4-7.37,38.08.8,0,1.6,0,2.4,0,2.47.04,4.96.02,7.44,0l-.72,4.32h-11.99l8.38-43.49,1.93-.15h0Z"/>
  <path class="cls-1" d="M273.5,126.11c-.32,1.59-.47,3.43-.79,5.08-2.27,11.4-4.52,22.83-6.64,34.25.8,0,1.6,0,2.4,0,2.39.04,4.8.02,7.2,0l-.72,4.32h-11.75l8.41-43.64h1.91-.02Z"/>
  <path class="cls-2" d="M349.55,197.57c.19.62.72,2.23.72,2.76v47.36h-3.12c.01-.48,0-.96,0-1.44.22-.02.69.13.72-.14v-46.27c-.22-3.24-1.32-5.86-3.12-8.5,2.7,1.47,3.89,3.28,4.8,6.24h0Z"/>
  <path class="cls-2" d="M166.5,190.38c.88,0,1.76,0,2.64,0v4.2c0,.12-1,1.69-1.2,2.04-4.3,7.64-9.52,14.87-13.62,22.63l14.82,24.26v4.2h-3.12c0-.31-.06-1.35,0-1.44,0-.02.32.06.42-.05.19-.21.11-4.04-.12-4.69-4.08-7.64-10.08-15.11-13.93-22.77-.15-.3-.19-.49-.28-.79,4.75-7.1,8.93-14.64,13.48-21.9.41-.52.38-1,.44-1.6.02-.16,0-.32,0-.48.75-.79.52-2.51.48-3.6h-.01Z"/>
  <path class="cls-2" d="M226.72,190.38c.72,0,1.44,0,2.16,0v6.24c.04,13.62,0,27.24-.03,40.86-.87,5.44-2.64,8.8-8.13,10.22,2.37-1.67,3.38-3.33,4.32-6,.23-.65.59-1.52.72-2.16l.61-1.67c.22-15.73.9-31.73.35-47.5h0Z"/>
  <path class="cls-2" d="M49.67,190.38c.72,0,1.44,0,2.16,0v6.24c.06,17.02-.04,34.06,0,51.08-.46.08-2.78-.11-2.88,0v-1.44c.22-.02.69.13.72-.14v-55.74Z"/>
  <path class="cls-11" d="M185.22,191.1c-.28,14.66.22,29.35,0,44.02.34,4.96,2.67,10.28,8.05,11.14,8.14-.52,17.16.71,25.19,0,3.12-.27,4.83-2.23,6.59-4.57-.94,2.66-1.95,4.33-4.32,6-.95.25-1.76.64-2.75.73-8.13.76-17.42-.59-25.68,0-5.07-.81-7.35-6.05-7.8-10.66.09-13.71-.09-27.43,0-41.14,0-1.84,0-3.68,0-5.52h.72Z"/>
  <path class="cls-11" d="M245.91,191.1c-.34,18.37.25,36.79,0,55.16h33.95c.09,0,1.58-.5,1.8-.6,1.65-.74,3-2.56,4.08-3.96-1.05,2.64-1.88,4.3-4.32,6-.45.11-1.93.72-2.04.72h-34.19c.09-17.26-.12-34.54,0-51.8,0-1.59-.12-3.37,0-4.93.06-.74-.12-.62.72-.59h0Z"/>
  <path class="cls-1" d="M381.69,165.44c1.27.03,2.56,0,3.84,0l-.99,4.29h-8.09l-7.24-17.24c.51-2.57,1.17-5.15,1.68-7.67l8.28,20.39c.35.43,1.87.23,2.52.24h0Z"/>
  <path class="cls-11" d="M463.5,241.7c-1.05,2.64-1.88,4.31-4.32,6-.94.25-1.76.64-2.75.73-8.13.76-17.42-.59-25.68,0-5.07-.81-7.35-6.05-7.8-10.66.67-11.72-.86-24.38,0-35.99.1-1.34.53-2.63.73-3.95h.24c.22,12.14-1.12,25.49-.25,37.54.35,4.85,2.82,10.09,8.05,10.9,8.14-.52,17.16.71,25.19,0,3.01-.26,4.95-2.23,6.59-4.57h0Z"/>
  <path class="cls-2" d="M466.62,197.57c.34,1.12.65,2.3.73,3.47.84,11.77-.62,24.56-.04,36.43-.87,5.44-2.64,8.8-8.13,10.22,2.44-1.69,3.27-3.36,4.32-6,.29-.72.5-1.41.72-2.16.4-1.37.96-2.69.97-4.19-.62-11.61.79-24,0-35.51-.21-3.13-1.27-5.64-2.89-8.26,2.41,1.63,3.46,3.15,4.32,6Z"/>
  <path class="cls-2" d="M287.41,197.57c1.17,4.07.93,11.79.73,16.2-.04.87-.53,2.12-.48,2.86.09,1.3,1.74,4.07,1.92,6.48.33,4.44.47,14.68-1.09,18.59s-3.28,5.04-7.07,6c2.44-1.69,3.27-3.36,4.32-6,.29-.72.5-1.41.72-2.16,1.31-4.52,1.6-16.32.36-20.86-.25-.93-1.27-2.84-1.31-3.49-.05-.79.45-2.18.48-3.1.17-4.44.43-11.71-.72-15.85-.49-1.77-1.43-3.04-2.17-4.67,2.27,1.71,3.49,3.12,4.32,6h-.01Z"/>
  <path class="cls-13" d="M81.34,196.61l1.22.15,11.01,18.08v-18.23h4.08c-.06,8.87.03,17.75,0,26.62-5.58-8.78-10.87-17.76-16.31-26.62Z"/>
  <path class="cls-6" d="M418.4,99.01c-.01,2.87,0,5.76,0,8.63h-12.96v-8.64h12.96Z"/>
  <path class="cls-11" d="M365.14,191.1c-.06,3.35.05,6.72,0,10.07h15.95s.36.33.36.36v44.73c2.65-.16,5.54.22,8.16,0,0,.48.01.96,0,1.44,0,.24.01.48,0,.72h-9.12v-44.85h-15.95c-.26,0-.34-.59-.37-.83-.19-1.65-.04-4.38.01-6.13,0-.03.24-.27.25-.58.06-1.64-.07-3.3-.01-4.94h.72Z"/>
  <path class="cls-1" d="M365.62,126.11c-.24,1.18-.3,2.63-.55,3.88-2.36,11.8-4.68,23.63-6.88,35.45.8,0,1.6,0,2.4,0,.72,0,1.44,0,2.16,0l-.72,4.32h-6.72l8.38-43.49,1.93-.15h0Z"/>
  <path class="cls-8" d="M454.14,121.31c-10.63.87-15,8.5-17.16,17.98-1.74,7.67-2.85,18.95,4.22,24.32,1.75,1.33,3.88,1.83,5.98,2.3-17.76-.65-15.64-22.3-10.32-34.05,2.79-6.16,7.88-9.82,14.63-10.55.83-.09,1.79.06,2.64,0h0Z"/>
  <path class="cls-8" d="M207.05,121.31c-10.59.87-14.89,8.36-17.11,17.79-1.81,7.69-2.93,19.12,4.18,24.52,1.75,1.33,3.88,1.83,5.98,2.3-3.22-.12-5.5-.31-8.24-2.2-9.13-6.31-5.41-24.21-1.6-32.81,1.01-1.43,1.81-3,3-4.32,3.57-3.95,8.59-5.27,13.8-5.27h0Z"/>
  <path class="cls-8" d="M332.27,121.31c-9.48,1.02-13.81,9.7-15.72,17.98-2.21,9.58-2.51,23.93,9.48,26.62-14.18-.57-14.33-15.99-11.88-26.62.55-2.37,1.45-4.6,2.04-6.95,1.17-1.87,2.16-3.94,3.61-5.63,3.18-3.71,7.64-5.39,12.47-5.4Z"/>
  <path class="cls-1" d="M485.81,170.23c-5.64.44-11.95-.16-17.49-1.22-.19-.22.33-3.45.46-3.57.25-.22,2.39.73,3.23,0,.12-.11.08-.45.12-.48.2-.14,4.21.65,4.92.72.67.07,1.37-.04,2.04,0,.05,0,.26.23.48.24.79.04,1.6-.02,2.4,0,4.21.12,10.51.35,14.39-1.2-1.23,2.17-3.69,3.85-6.05,4.62-1.19.39-3.28.8-4.51.89h0Z"/>
  <path class="cls-8" d="M114.45,121.79c.4-.02.8,0,1.2,0l-8.4,43.65c-.8,0-1.6,0-2.4,0,2.41-12.69,4.78-25.42,7.37-38.08.09-.44,0-.92.07-1.25.02-.1.3-.38.37-.7.25-1.19.45-2.4.6-3.6.39-.05.79,0,1.19-.01h0Z"/>
  <path class="cls-8" d="M153.79,121.79l-8.4,43.65c-.8,0-1.6,0-2.4,0,2.41-12.69,4.78-25.42,7.37-38.08.09-.44,0-.91.07-1.25.02-.1.3-.38.37-.7.25-1.19.45-2.4.6-3.6.79-.04,1.59,0,2.39-.01h0Z"/>
  <path class="cls-8" d="M74.86,121.79l-8.4,43.65c-.8,0-1.6,0-2.4,0,2.41-12.69,4.78-25.42,7.37-38.08.09-.44,0-.91.07-1.25.02-.1.3-.38.37-.7.25-1.19.45-2.4.6-3.6.79-.04,1.59,0,2.39-.01h0Z"/>
  <path class="cls-8" d="M414.08,121.79l-8.4,43.65c-.8,0-1.6,0-2.4,0,2.37-12.69,4.77-25.43,7.37-38.08.09-.44,0-.91.07-1.25.27-1.35.96-2.84.97-4.3.79-.04,1.59,0,2.39-.01h0Z"/>
  <path class="cls-8" d="M368.98,121.79l-8.4,43.65c-.8,0-1.6,0-2.4,0,2.2-11.82,4.52-23.65,6.88-35.45.25-1.25.32-2.7.55-3.88.02-.1.3-.38.37-.7.25-1.19.45-2.4.6-3.6.79-.04,1.59,0,2.39-.01h0Z"/>
  <path class="cls-8" d="M276.86,121.79l-8.4,43.65c-.8,0-1.6,0-2.4,0,2.12-11.42,4.37-22.85,6.64-34.25.33-1.65.47-3.49.79-5.08.02-.1.3-.38.37-.7.25-1.19.45-2.4.6-3.6.79-.04,1.59,0,2.39-.01h0Z"/>
  <path class="cls-8" d="M491.33,121.31c-7.51.69-11.33,6.15-11.96,13.34-.94,10.58,5.35,10.23,11.25,15.55,2.67,2.4,2.73,5.38,1.05,8.49-1.3,2.41-4.19,3.57-6.81,2.91,1.09-.19,1.17-.16,2.16-.72,2.5-1.4,3.89-5.25,3.1-8.02-1.17-4.15-10.02-6-12.42-11.8-1.42-3.41-.74-8.93.68-12.32s4.67-6.4,8.4-7.19c1.24-.26,3.24-.15,4.56-.24h0Z"/>
  <path class="cls-2" d="M194.09,190.38c.72,0,1.44,0,2.16,0v6.24c.04,12.28-.43,24.95,0,37.17-.72,0-1.44,0-2.16,0v-43.41Z"/>
  <path class="cls-1" d="M281.9,153.69l2.18,11.73c.79.07,1.59.02,2.37.03,2.07.03,4.16,0,6.24,0l.72,4.32h-12.23c-.22-2.11-.96-4.35-.96-6.48,0-2.52,1.14-6.96,1.68-9.59h0Z"/>
  <path class="cls-3" d="M75.82,190.38h.48l21.35,35.01v3.6l-.35-.24-22.71-37.61c-2.06-.06-4.14-.06-6.2-.04.02-.16-.02-.33,0-.48.01-.08-.02-.23,0-.24.33-.17,6.46-.03,7.44,0h-.01Z"/>
  <path class="cls-6" d="M536.19,230.19v8.63l-10.31-.24c-.19-.31-2.32-3.24-2.16-3.36,3.37-.02,6.06-2.37,7.44-5.28,1.64.12,3.47-.28,5.04.24h-.01Z"/>
  <path class="cls-6" d="M142.28,99.01h12.96v5.76h-12.96v-5.76Z"/>
  <path class="cls-3" d="M281.66,190.62c.48.29.99.62,1.44.96.73,1.63,1.67,2.9,2.17,4.67,1.15,4.14.89,11.4.72,15.85-.03.91-.53,2.3-.48,3.1.04.65,1.05,2.56,1.31,3.49,1.24,4.54.95,16.34-.36,20.86.05-.52.22-1.02.25-1.55.25-4.28.45-13.25-.61-17.16-.23-.86-1.28-2.99-1.31-3.49-.05-.79.44-2.18.48-3.1.21-4.81.55-13.56-1.4-17.8-.88-1.93-3.91-5.35-6.16-5.35h-29.63l.14-.72,33.44.24h0Z"/>
  <path class="cls-3" d="M343.55,190.62c.5.15.82.51,1.2.72,1.8,2.64,2.91,5.27,3.13,8.5v46.27c-.04.27-.51.12-.73.14.26-14.82-.21-29.67,0-44.5-.39-4.58-2.86-9.83-7.83-10.64-8.16.28-16.68-.47-24.8-.03.63-.47,1.5-.66,2.27-.73,8.03-.71,17.07.56,25.21,0,.48.08,1.09.12,1.55.25v.02Z"/>
  <path class="cls-13" d="M137.96,196.61h4.8v14.87c-1.59.02-3.21.03-4.8,0-.17-4.9.02-9.95,0-14.87Z"/>
  <path class="cls-3" d="M460.86,190.62c.59.19.97.64,1.44.96,1.62,2.63,2.67,5.13,2.89,8.26.79,11.51-.62,23.91,0,35.51,0,1.49-.57,2.82-.97,4.19.09-.6.22-1.17.25-1.79.51-11.86-.41-24.09,0-35.99-.4-4.58-2.76-9.57-7.59-10.64-8.3.34-17.05-.53-25.29-.02.63-.47,1.5-.66,2.27-.73,8.1-.72,17.24.56,25.45,0,.47.08,1.11.11,1.55.25Z"/>
  <path class="cls-15" d="M365.14,191.1c0-.4-.12-2.12.14-2.16h41.37c.01.48-.02.96,0,1.44-13.02-.21-26.08.16-39.1,0l-.24.12.24.12c-.02.15.02.32,0,.48-.8,0-1.6-.02-2.4,0h-.01Z"/>
  <path class="cls-11" d="M65.99,191.1c-.36,18.37.27,36.79,0,55.16,2.65-.16,5.54.22,8.16,0,0,.48.01.96,0,1.44,0,.24.01.48,0,.72h-8.88c.09-17.26-.12-34.54,0-51.8.01-1.84,0-3.68,0-5.52h.72Z"/>
  <path class="cls-11" d="M483.89,191.34c-.36,18.29.27,36.63,0,54.92,2.71-.06,5.45.08,8.16,0,0,.48.01.96,0,1.44,0,.24.01.48,0,.72h-8.88c.09-17.18-.12-34.38,0-51.56.01-1.84,0-3.68,0-5.52h.72Z"/>
  <path class="cls-15" d="M216.88,196.61c.07-1.89.33-4.02.71-5.68.1-.42-.09-1.9,0-1.99.32-.32,7.98.25,9.12,0,0,.48-.02.96,0,1.44-1.99-.04-4.42-.15-6.37,0-.74.06-.62-.12-.59.72-.64,0-1.28,0-1.92,0v42.58l-.96.35v-.24c.2-12.32-.44-24.9,0-37.17h0Z"/>
  <path class="cls-2" d="M76.3,190.38c.47.02.94-.08,1.4.04,1.1,2.12,2.39,4.16,3.64,6.2,5.45,8.86,10.73,17.84,16.31,26.62v2.16l-21.35-35.01h0Z"/>
  <path class="cls-15" d="M521.07,190.86c-.32-.08-.65-.34-1.06-.25-10.77.65-22.48-.83-33.13,0-.74.06-.62-.12-.59.72-.8,0-1.6-.02-2.4,0,.01-.72-.01-1.44,0-2.16h34.19c.66,0,2.56,1.04,3,1.68h-.01Z"/>
  <path class="cls-11" d="M306.61,197.81c-.11.7-.14,1.54-.25,2.27v46.18c2.72-.06,5.46.08,8.17,0,0,.48.01.96,0,1.44,0,.24.01.48,0,.72h-8.88v-46.65l.73-3.95h.24-.01Z"/>
  <path class="cls-2" d="M137.96,226.11v21.58h-3.12c0-.48,0-.96,0-1.44.24,0,.48,0,.72,0,.1-6.71-.13-13.44,0-20.15.8-.02,1.6,0,2.4,0h0Z"/>
  <path class="cls-15" d="M343.55,190.62c-.46-.13-1.07-.17-1.55-.25-8.14.56-17.18-.71-25.21,0-.77.07-1.64.26-2.27.73-1.6.09-2.5.13-3.92,1-1.2.73-2.65,2.35-3.28,3.56.83-3.24,3.28-6.01,6.62-6.69,8.29.56,17.73-.82,25.89-.02,1.27.13,2.9.65,3.72,1.68h0Z"/>
  <path class="cls-8" d="M391.77,121.79l-4.32,22.78c-.56.12-.39-.08-.54-.31-.61-.93-.92-2.26-1.38-3.29,1.29-4.88,1.88-9.93,2.88-14.87.27-1.36.84-2.86.98-4.29.79-.06,1.59-.01,2.38-.02h0Z"/>
  <path class="cls-15" d="M460.86,190.62c-.44-.14-1.08-.17-1.55-.25-8.21.56-17.35-.72-25.45,0-.77.07-1.64.26-2.27.73-1.49.09-2.37.2-3.68,1-1.2.73-2.65,2.35-3.28,3.56.83-3.24,3.28-6.01,6.62-6.69,8.3.62,18-.9,26.13-.02,1.15.13,2.74.76,3.48,1.68h0Z"/>
  <path class="cls-2" d="M135.56,190.38c.8,0,1.6,0,2.4,0v6.24c.02,4.92-.17,9.97,0,14.87-.8,0-1.6,0-2.4,0-.18-7.02.25-14.09,0-21.11Z"/>
  <path class="cls-6" d="M35.52,230.67v5.76h-8.64v-5.76h8.64Z"/>
  <path class="cls-1" d="M95.97,125.63c.09,1.47-.42,2.88-.75,4.29l-10.28.03c.29-1.41.47-2.88.73-4.3,3.43-.05,6.87.02,10.3-.01h0Z"/>
  <path class="cls-1" d="M174.66,125.63c.09,1.47-.42,2.88-.75,4.29l-10.04.03c.29-1.41.47-2.88.73-4.3,3.35-.04,6.71.02,10.06-.01h0Z"/>
  <path class="cls-1" d="M502.12,125.87c.91.34.21,3.53-.05,4.15-.32.76-2.01-.07-2.75-.06-2.22,0-3.59-.04-5.96-.25-.6-.05-1.2.02-1.8,0,1.77-5.53,6.14-3.97,10.56-3.84h0Z"/>
  <path class="cls-1" d="M90.46,145.05c.32,1.42-.56,2.86-.48,4.31h-8.87c.13-.61.76-4.08.94-4.21,2.8-.22,5.61-.06,8.41-.1h0Z"/>
  <path class="cls-1" d="M462.06,125.87c.56.07,1.09-.2,1.21.61.05.3-.6,3.58-.76,3.68-.36.24-1.87-.22-2.49-.23-.57,0-1.09.29-1.67.27-1.97-.06-3.84-1.01-5.89,0,2.54-4.33,4.61-4.97,9.6-4.32h0Z"/>
  <path class="cls-1" d="M169.14,145.05c.32,1.42-.56,2.86-.48,4.31h-8.63c.13-.61.76-4.08.94-4.21,2.72-.22,5.45-.07,8.17-.1h0Z"/>
  <path class="cls-1" d="M214.96,125.87c.5.08.87-.11.97.61.05.31-.6,3.58-.76,3.68-.36.24-1.87-.22-2.49-.23-.57,0-1.09.29-1.67.27-1.86-.06-3.78-1.04-5.65,0,2.46-4.25,4.69-5.07,9.6-4.32h0Z"/>
  <path class="cls-2" d="M406.64,190.38c.8,0,1.6,0,2.4,0v12.48h-3.12c.01-.48,0-.96,0-1.44.24,0,.48,0,.72,0-.1-3.67.13-7.37,0-11.03h0Z"/>
  <path class="cls-1" d="M388.41,126.11c-1,4.94-1.59,9.99-2.88,14.87-.5-1.12-.95-2.24-1.44-3.36l2.37-11.37s1.95-.14,1.95-.14Z"/>
  <path class="cls-11" d="M98.37,191.1c-.23,11.94.17,23.91,0,35.85l-.72-.84v-2.88c.03-8.87-.06-17.75,0-26.62.01-1.84,0-3.68,0-5.52h.72Z"/>
  <path class="cls-1" d="M258.39,125.63l-.75,4.29-5.01.03c.29-1.42.54-2.87.73-4.3,1.67-.04,3.35,0,5.03-.01h0Z"/>
  <path class="cls-9" d="M152.83,196.61h.24c-2.95,4.87-6.27,12.07-9.84,16.31h-5.28c0-.48.02-.96,0-1.44,1.59.03,3.21.02,4.8,0,.09,0,.43.4.9-.06,2.95-4.89,5.73-9.92,8.74-14.77.07-.11.42-.02.43-.04h0Z"/>
  <path class="cls-15" d="M152.83,196.61c.07-.11.05-.42.19-.64,1.44-2.3,2.83-4.63,4.18-6.98l9.31-.05c0,.48-.02.96,0,1.44-1.96-.03-4.76-.23-6.61-.02-.52.06-.4.38-.59.74-.68.02-2.44-.15-2.88.12-1,1.87-2.26,3.6-3.36,5.4h-.24,0Z"/>
  <path class="cls-15" d="M212.57,233.79v1.44c-3.83,0-7.68.02-11.52,0v-1.44h11.52Z"/>
  <path class="cls-15" d="M75.82,190.38c-.98-.03-7.1-.17-7.44,0l-.24.12.24.12c-.02.15.02.32,0,.48-.8,0-1.6-.02-2.4,0,.01-.72-.01-1.44,0-2.16,2.57.34,6.34-.46,8.75,0,.69.13.99.79,1.08,1.43h.01Z"/>
  <path class="cls-15" d="M98.37,191.1c.01-.72-.01-1.44,0-2.16h9.12v1.44c-1.92-.03-4.25-.15-6.13,0-.74.06-.62-.12-.59.72-.8,0-1.6-.02-2.4,0Z"/>
  <path class="cls-15" d="M126.68,191.1c.06-.7-.05-1.45,0-2.16h8.88c0,.48-.02.96,0,1.44-1.85-.03-4.08-.14-5.89,0-.74.06-.62-.12-.59.72h-2.4Z"/>
  <path class="cls-15" d="M40.8,191.1c.06-.7-.05-1.45,0-2.16h8.88c0,.48-.02.96,0,1.44-1.92-.04-4.25-.15-6.13,0-.74.06-.62-.12-.59.72h-2.16Z"/>
  <path class="cls-15" d="M185.22,191.1c0-.72,0-1.44,0-2.16h8.88v1.44c-1.92-.04-4.25-.15-6.13,0-.74.06-.62-.12-.59.72-.72,0-1.44-.02-2.16,0Z"/>
  <path class="cls-8" d="M474.29,161.36l-.47,3.35,5.27.97c-.67-.05-1.36.06-2.04,0-.71-.07-4.72-.86-4.92-.72-1.31.16-.39-3.69-.23-3.83.09-.08,1.9.22,2.39.23h0Z"/>
  <path class="cls-8" d="M233.68,121.79l-.72,3.84c-.4,0-.8.02-1.2,0s-.8.01-1.2,0l.73-3.82c.79-.04,1.59,0,2.39-.01h0Z"/>
  <path class="cls-11" d="M254.79,225.63c0-.72,0-1.44,0-2.16h23.51v10.31h-.72c.05-2.71-.04-5.44,0-8.16-6.87.06-13.76-.08-20.63,0-.72,0-1.44-.02-2.16,0h0Z"/>
  <path class="cls-11" d="M254.79,203.57c0-.72,0-1.44,0-2.16h22.07v9.6h-.72c.04-2.47-.03-4.96,0-7.44-6.39.06-12.8-.07-19.19,0-.72,0-1.44-.02-2.16,0h0Z"/>
  <path class="cls-3" d="M254.79,225.63c-.05,2.71.04,5.44,0,8.16.72,0,1.44-.02,2.16,0,.02.48-.01.96,0,1.44h4.8c3.83.02,7.68,0,11.52,0h4.32c0,.24.01.48,0,.72h-23.51v-10.31h.72,0Z"/>
  <path class="cls-3" d="M254.79,203.57c-.05,2.47.04,4.96,0,7.44.72,0,1.44-.02,2.16,0,.02.48-.01.96,0,1.44h4.8c3.35.02,6.72,0,10.08,0h4.32c0,.24.01.48,0,.72h-22.07v-9.59h.72,0Z"/>
  <path class="cls-9" d="M277.58,233.79c0,.48.01.96,0,1.44h-4.32v-1.44c1.43,0,2.89.04,4.32,0Z"/>
  <path class="cls-9" d="M276.14,211c0,.48.01.96,0,1.44h-4.32v-1.44c1.43,0,2.89.04,4.32,0Z"/>
  <path class="cls-11" d="M315.24,229.95c.01-.72-.01-1.44,0-2.16h23.51v18.47c2.73-.17,5.7.22,8.4,0,0,.48.01.96,0,1.44,0,.24.01.48,0,.72h-9.12v-18.47c-6.79.05-13.6-.07-20.39,0-.8,0-1.6-.02-2.4,0h0Z"/>
  <path class="cls-11" d="M315.24,203.57c.01-.72-.01-1.44,0-2.16h23.51v13.91h-.72c.07-3.91-.05-7.84,0-11.75-6.79.05-13.6-.07-20.39,0-.8,0-1.6-.02-2.4,0h0Z"/>
  <path class="cls-3" d="M315.24,203.57c-.08,3.91.06,7.84,0,11.75.8,0,1.6,0,2.4,0,.02.48-.01.96,0,1.44h4.8c3.83.02,7.68,0,11.52,0h4.08c0,.24.01.48,0,.72h-23.51v-13.91h.72,0Z"/>
  <path class="cls-3" d="M315.24,229.95c-.11,5.43.08,10.88,0,16.31h-.72c.1-5.43-.07-10.88,0-16.31h.72Z"/>
  <path class="cls-9" d="M338.03,215.32c0,.48.01.96,0,1.44h-4.08v-1.44c1.35,0,2.73.04,4.08,0Z"/>
  <path class="cls-11" d="M432.55,203.57c.01-.72-.01-1.44,0-2.16h23.51v32.24c-.04.27-.5.12-.72.14.18-10.06-.14-20.15,0-30.22-6.87.06-13.76-.07-20.63,0-.7,0-1.47-.06-2.16,0Z"/>
  <path class="cls-3" d="M432.55,203.57c-.2,10.06.15,20.16,0,30.22.72,0,1.44-.02,2.16,0,.02.48-.01.96,0,1.44h4.8c3.83.02,7.68,0,11.52,0h4.32c0,.24.01.48,0,.72h-23.51v-32.23c.04-.27.5-.12.72-.14h0Z"/>
  <path class="cls-9" d="M455.34,233.79c0,.48.01.96,0,1.44h-4.32v-1.44c1.39,0,2.97.11,4.32,0Z"/>
  <path class="cls-11" d="M135.56,226.11c0-.72,0-1.44,0-2.16h8.04l13.59,22.26,8.84.04c-.06.09,0,1.13,0,1.44,0,.18.03.69,0,.72-.36.32-8.34-.2-9.55-.05l-13.23-21.91c-.57-.59-4.22-.36-5.29-.35-.8,0-1.6-.02-2.4,0h0Z"/>
  <path class="cls-3" d="M135.56,190.38c.25,7.01-.18,14.09,0,21.11.8,0,1.6,0,2.4,0,.02.48,0,.96,0,1.44h5.28c-.05.06,0,.34-.12.48-.49.58-7.03.05-8.28.24v-22.54c0-.29-5.23,0-5.76,0-.03-.84-.15-.66.59-.72,1.81-.14,4.04-.03,5.89,0h0Z"/>
  <path class="cls-11" d="M152.11,217.96s-.24-.14-.24-.35l.11-.34,14.04-22.81c-.06.6-.03,1.08-.44,1.6-4.55,7.26-8.73,14.8-13.48,21.9h.01Z"/>
  <path class="cls-3" d="M135.56,226.11c-.13,6.71.1,13.44,0,20.15h-.72c.12-6.71-.09-13.44,0-20.15h.72Z"/>
  <path class="cls-3" d="M166.5,190.38c.04,1.09.27,2.81-.48,3.6.06-.95-.04-1.93,0-2.88-2.23.04-4.48-.05-6.72,0,.19-.36.07-.68.59-.74,1.85-.21,4.65,0,6.61.02Z"/>
  <path class="cls-1" d="M329.4,161.12c1.96-5.87,3.5-12.45,4.28-18.62.48-3.74,1.59-10.32-2.12-12.56.4-.93.34-1.68,1.2-2.76,1.25-1.57,2.09-2.15,3.32-.2,2.13,3.37.43,12.22-.28,16.19-.63,3.5-1.43,7.34-2.44,10.75-.74,2.49-1.63,5.83-3.96,7.2h0Z"/>
  <path class="cls-8" d="M284.53,144.57c.65-.28.96-.57,1.44-.96,2.56-2.04,3.57-6.62,4.01-9.78.36-2.55,1.1-7.77-2.57-7.97.53-.61,2.94-.18,3.68.28,2.99,1.82.98,10.51-.02,13.34-1.2,3.42-2.74,5.21-6.55,5.09h0Z"/>
  <path class="cls-1" d="M285.97,143.61c.67-3.9,2.7-8.83.48-12.47.21-.97.52-4.76.96-5.28,3.67.2,2.93,5.42,2.57,7.97-.44,3.16-1.45,7.74-4.01,9.78Z"/>
  <path class="cls-8" d="M281.9,153.69c.15-.72.79-4.85.98-5.02.1-.09.7.03.94-.02l2.64,16.79c-.79,0-1.59.04-2.37-.03l-2.18-11.73h-.01Z"/>
  <path class="cls-11" d="M74.86,211v-2.88l.35.25,22.97,37.83c2.77-.07,5.85.28,8.59.05,0,.48.01.96,0,1.44,0,.24.01.48,0,.72-2.75-.26-6.09.34-8.77,0-.27-.03-.52,0-.7-.26-6.64-10.98-13.31-21.93-20.03-32.85-.53-.86-.99-1.8-1.55-2.64-.23-.35-.25-.75-.84-.72v-.96h-.02Z"/>
  <path class="cls-2" d="M77.26,215.32v32.38h-3.12c.01-.48,0-.96,0-1.44.22-.02.69.13.72-.14.03-11.38-.05-22.77,0-34.15.59-.04.61.37.84.72.57.84,1.02,1.78,1.55,2.64h.01Z"/>
  <path class="cls-11" d="M492.77,229.71c.01-.41-.09-2.05.4-2.17l11.6.13,11.31,18.55c2.86,0,5.74.12,8.6.04,0,.48.01.96,0,1.44,0,.24.01.48,0,.72l-9.31-.05-11.32-18.53c-2.95-.19-5.93-.17-8.87-.12-.78,0-1.64-.07-2.4,0h-.01Z"/>
  <path class="cls-2" d="M495.16,229.71v17.99h-3.12c.01-.48,0-.96,0-1.44.24,0,.48,0,.72,0,.14-5.5-.19-11.05,0-16.55.76-.07,1.62,0,2.4,0Z"/>
  <path class="cls-2" d="M518.91,229.23l8.88,14.27v4.2h-3.12c.01-.48,0-.96,0-1.44.24,0,.48,0,.72,0l-.11-4.33c-2.1-3.87-4.83-7.43-6.95-11.28-.22-.39-.43-.7-.37-1.18.19-.04.9-.21.96-.24h-.01Z"/>
  <path class="cls-11" d="M519.15,228.99c-.09.05-.17.21-.24.24-.06.03-.77.19-.96.24-.14.03-.33-.03-.48,0-.24-.77-1-1.34-.96-2.16,3.42.31,5.94-2.32,7.44-5.04-.78,2.7-2.26,5.28-4.8,6.71h0Z"/>
  <path class="cls-8" d="M381.69,165.44c-.65,0-2.17.19-2.52-.24l-8.28-20.39c.23-1.13.27-2.66.48-3.84l.45.39,9.87,24.07h0Z"/>
  <path class="cls-2" d="M317.64,229.95v17.75h-3.12c.01-.48,0-.96,0-1.44.24,0,.48,0,.72,0,.08-5.43-.11-10.88,0-16.31.8-.02,1.6,0,2.4,0Z"/>
  <path class="cls-2" d="M392.73,203.57v44.13h-3.12c.01-.48,0-.96,0-1.44.22-.02.69.13.72-.14.2-14.17-.28-28.38,0-42.55.76-.06,1.62,0,2.4,0Z"/>
  <path class="cls-11" d="M405.92,201.41c0,.48.01.96,0,1.44,0,.24.01.48,0,.72-4.39.03-8.8-.04-13.2,0-.78,0-1.64-.06-2.4,0,.01-.72-.01-1.44,0-2.16,5.19-.11,10.41.15,15.59,0h.01Z"/>
  <path class="cls-8" d="M481.97,165.92c-.8-.02-1.61.04-2.4,0,.49-.4,1.87-.41,2.4,0Z"/>
  <path class="cls-8" d="M239.43,125.63c.8.01,1.6-.01,2.4,0l-.03,1.05-7.41,38.76c-.87,0-1.79.1-2.63-.12l7.67-39.69h0Z"/>
  <path class="cls-3" d="M49.67,190.38v55.74c-.03.27-.5.12-.72.14v-55.16h-6c-.03-.84-.15-.66.59-.72,1.88-.15,4.21-.04,6.13,0Z"/>
  <path class="cls-9" d="M201.05,233.79v1.44h-4.8c0-.48.02-.96,0-1.44,1.59.03,3.2,0,4.8,0Z"/>
  <path class="cls-9" d="M216.88,233.79v.24c0,.4,0,.8,0,1.2h-4.32v-1.44h4.32Z"/>
  <path class="cls-14" d="M486.29,191.34c10.19-.1,20.39.07,30.58,0,4.74.48,7.45,6.19,7.8,10.43.38,4.6.38,12.67.01,17.27-.09,1.11-.42,2.17-.73,3.23-1.5,2.72-4.02,5.35-7.44,5.04-.05.82.72,1.39.96,2.16-.54.11-1.17.13-1.68.36,2.94,4.88,6.23,9.61,8.86,14.65.05.59,0,1.19.02,1.78-2.86.08-5.74-.03-8.6-.04l-11.31-18.55-11.6-.13c-.49.11-.39,1.76-.4,2.17-.18.02-.4-.1-.5.14-.47,5.41-.12,10.95-.22,16.41-2.71.08-5.45-.06-8.16,0,.27-18.29-.36-36.63,0-54.92.8-.02,1.6,0,2.4,0h0ZM492.77,203.57c-.24,0-.48,0-.72,0v13.67h23.51v-.72c.01-.48,0-.96,0-1.44.24,0,.48,0,.72,0v-13.67h-23.51c0,.72.02,1.44,0,2.16h0Z"/>
  <path class="cls-3" d="M107.49,190.38v55.74c-.03.27-.5.12-.72.14.33-18.37-.25-36.79,0-55.16-2,.02-4-.02-6,0-.03-.84-.15-.66.59-.72,1.88-.15,4.21-.03,6.13,0Z"/>
  <path class="cls-14" d="M187.38,191.1c2-.02,4,.02,6,0v44.85h23.51v-.72c0-.4,0-.8,0-1.2l.96-.35v-42.58c.63,0,1.28.02,1.92,0,2.07-.05,4.16.04,6.24,0v46.66c0,.6-.13,1.2-.24,1.79-.13.64-.49,1.51-.72,2.16-1.76,2.34-3.47,4.3-6.59,4.57-8.03.69-17.06-.53-25.19,0-5.38-.86-7.71-6.18-8.05-11.14.23-14.66-.28-29.36,0-44.02.72-.02,1.44,0,2.16,0h0Z"/>
  <path class="cls-3" d="M226.72,190.38c.56,15.76-.13,31.77-.35,47.5l-.61,1.67c.12-.59.24-1.18.25-1.79v-46.66c-2.08.04-4.18-.05-6.25,0-.03-.84-.15-.66.59-.72,1.95-.15,4.38-.04,6.37,0h0Z"/>
  <path class="cls-14" d="M367.54,191.1c12.79-.13,25.6.1,38.38,0-.05,3.43.06,6.88,0,10.31-5.19.15-10.41-.11-15.59,0,0,.72.02,1.44,0,2.16-.22.02-.69-.13-.72.14-.18,14.17.26,28.38,0,42.55-2.62.22-5.51-.16-8.16,0v-44.73s-.33-.36-.36-.36h-15.95c.05-3.35-.06-6.72,0-10.07.8-.02,1.6,0,2.4,0Z"/>
  <path class="cls-3" d="M194.09,190.38v43.41c.72,0,1.44-.02,2.16,0,.02.48,0,.96,0,1.44h4.8c3.83.02,7.68,0,11.52,0h4.32c0,.24,0,.48,0,.72h-23.51v-44.85c-2,.02-4-.02-6,0-.03-.84-.15-.66.59-.72,1.88-.15,4.21-.04,6.13,0h-.01Z"/>
  <path class="cls-14" d="M68.39,191.1c2.06-.02,4.14-.02,6.2.04l22.71,37.61.35.24c.01-.96,0-1.92,0-2.88l.72.84c.17-11.94-.23-23.91,0-35.85.8-.02,1.6,0,2.4,0,2-.02,4,.02,6,0-.25,18.37.33,36.79,0,55.16-2.74.23-5.81-.13-8.59-.05l-22.97-37.83-.35-.25v2.88l-.72-.6c-.16,11.94.21,23.91,0,35.85-2.62.22-5.51-.16-8.16,0,.27-18.37-.36-36.79,0-55.16.8-.02,1.6,0,2.4,0h.01Z"/>
  <path class="cls-14" d="M68.39,190.62l-.24-.12.24-.12s.01.16,0,.24h0Z"/>
  <path class="cls-3" d="M406.64,190.38c.13,3.66-.1,7.37,0,11.03h-.72c.06-3.43-.05-6.88,0-10.31-12.79.1-25.6-.13-38.38,0,.02-.16-.02-.33,0-.48.01-.08,0-.16,0-.24,13.03.16,26.08-.21,39.1,0Z"/>
  <path class="cls-14" d="M367.54,190.62l-.24-.12.24-.12c0,.08.01.16,0,.24h0Z"/>
  <path class="cls-13" d="M256.95,225.63c6.87-.08,13.76.06,20.63,0-.04,2.71.05,5.44,0,8.16-1.43.04-2.88,0-4.32,0,0-.35.13-2.64,0-2.64h-11.52c-.13,0,0,2.29,0,2.64-1.59,0-3.2.03-4.8,0-.1-2.71.07-5.44,0-8.15h0Z"/>
  <path class="cls-2" d="M256.95,225.63c.07,2.71-.1,5.45,0,8.15-.72,0-1.44,0-2.16,0,.04-2.71-.05-5.44,0-8.16.72-.02,1.44,0,2.16,0h0Z"/>
  <path class="cls-13" d="M256.95,203.57c6.39-.07,12.8.06,19.19,0-.03,2.47.04,4.96,0,7.44-1.43.04-2.88,0-4.32,0v-1.92h-9.94c-.25.03-.14,1.55-.14,1.92-1.59,0-3.2.03-4.8,0-.09-2.47.06-4.96,0-7.43h.01Z"/>
  <path class="cls-2" d="M256.95,203.57c.06,2.47-.09,4.97,0,7.43-.72,0-1.44,0-2.16,0,.04-2.47-.05-4.96,0-7.44.72-.02,1.44,0,2.16,0h0Z"/>
  <path class="cls-15" d="M273.26,233.79v1.44c-3.83,0-7.68.02-11.52,0v-1.44c3.83,0,7.68.02,11.52,0Z"/>
  <path class="cls-9" d="M261.74,233.79v1.44h-4.8c-.01-.48.02-.96,0-1.44,1.59.03,3.2,0,4.8,0Z"/>
  <path class="cls-15" d="M271.82,211v1.44c-3.35,0-6.72.02-10.08,0v-1.44c3.35,0,6.72.02,10.08,0Z"/>
  <path class="cls-9" d="M261.74,211v1.44h-4.8c-.01-.48.02-.96,0-1.44,1.59.03,3.2,0,4.8,0Z"/>
  <path class="cls-13" d="M317.64,203.57c6.79-.07,13.6.05,20.39,0-.05,3.91.07,7.84,0,11.75-1.35.04-2.72,0-4.08,0,0-.56.31-6.24,0-6.24h-11.52c-.31,0,0,5.67,0,6.24-1.6,0-3.2.03-4.8,0-.14-3.9.1-7.84,0-11.75h0Z"/>
  <path class="cls-2" d="M317.64,203.57c.1,3.91-.14,7.85,0,11.75-.8,0-1.6,0-2.4,0,.06-3.91-.07-7.84,0-11.75.8-.02,1.6,0,2.4,0Z"/>
  <path class="cls-15" d="M333.95,215.32v1.44c-3.83,0-7.68.02-11.52,0v-1.44c3.83,0,7.68.02,11.52,0Z"/>
  <path class="cls-9" d="M322.44,215.32v1.44h-4.8c-.01-.48.02-.96,0-1.44,1.59.03,3.2,0,4.8,0Z"/>
  <path class="cls-13" d="M434.71,203.57c6.87-.08,13.76.06,20.63,0-.14,10.06.18,20.16,0,30.22-1.35.11-2.93,0-4.32,0v-24.7h-11.52v24.7c-1.59,0-3.2.03-4.8,0-.35-10.04.27-20.17,0-30.22h0Z"/>
  <path class="cls-2" d="M434.71,203.57c.27,10.05-.35,20.17,0,30.22-.72,0-1.44,0-2.16,0,.15-10.06-.19-20.16,0-30.22.69-.06,1.45,0,2.16,0Z"/>
  <path class="cls-15" d="M451.02,233.79v1.44c-3.83,0-7.68.02-11.52,0v-1.44c3.83,0,7.68.02,11.52,0Z"/>
  <path class="cls-9" d="M439.51,233.79v1.44h-4.8c-.01-.48.02-.96,0-1.44,1.59.03,3.2,0,4.8,0Z"/>
  <path class="cls-3" d="M74.86,211v.96c-.05,11.38.03,22.77,0,34.15-.04.27-.5.12-.72.14.21-11.94-.16-23.91,0-35.85l.72.6h0Z"/>
  <path class="cls-3" d="M492.77,229.71c-.19,5.5.14,11.05,0,16.55h-.72c.1-5.46-.25-11,.22-16.41.1-.24.32-.12.5-.14Z"/>
  <path class="cls-3" d="M517.48,229.47c.15-.03.34.03.48,0-.06.48.16.79.37,1.18,2.12,3.85,4.86,7.41,6.95,11.28l.11,4.33h-.72c-.01-.59.04-1.19-.02-1.78-2.63-5.04-5.92-9.77-8.86-14.65.5-.23,1.13-.25,1.68-.36h.01Z"/>
  <path class="cls-3" d="M390.33,203.57c-.28,14.17.2,28.37,0,42.55-.04.27-.5.12-.72.14.25-14.17-.19-28.37,0-42.55.04-.27.5-.12.72-.14Z"/>
  <path class="cls-11" d="M492.77,203.57c.01-.72-.01-1.44,0-2.16h23.51v13.67h-.72c.07-3.83-.05-7.68,0-11.51-6.79.05-13.6-.07-20.39,0-.8,0-1.6-.02-2.4,0Z"/>
  <path class="cls-3" d="M492.77,203.57c-.07,3.83.06,7.68,0,11.51.8,0,1.6,0,2.4,0,.02.48-.01.96,0,1.44h4.8c3.83.02,7.68,0,11.52,0h4.08c0,.24.01.48,0,.72h-23.51v-13.67h.72,0Z"/>
  <path class="cls-9" d="M515.56,215.08c0,.48.01.96,0,1.44h-4.08v-1.44c1.35,0,2.73.04,4.08,0Z"/>
  <path class="cls-13" d="M495.16,203.57c6.79-.07,13.6.05,20.39,0-.05,3.83.07,7.68,0,11.51-1.35.04-2.72,0-4.08,0v-6h-11.52c-.3,0,0,5.45,0,6-1.6,0-3.2.03-4.8,0-.14-3.82.1-7.68,0-11.51h0Z"/>
  <path class="cls-2" d="M495.16,203.57c.1,3.83-.14,7.69,0,11.51-.8,0-1.6,0-2.4,0,.06-3.83-.07-7.68,0-11.51.8-.02,1.6,0,2.4,0Z"/>
  <path class="cls-15" d="M511.48,215.08v1.44c-3.83,0-7.68.02-11.52,0v-1.44c3.83,0,7.68.02,11.52,0Z"/>
  <path class="cls-9" d="M499.96,215.08v1.44h-4.8c-.01-.48.02-.96,0-1.44,1.59.03,3.2,0,4.8,0Z"/>
</svg>